<svg version="1.2" xmlns="http://www.w3.org/2000/svg" viewBox="0 0 349 95" width="349" height="95">
	<title>logo-svg</title>
	<defs>
		<linearGradient id="g1" x1="3.3" y1="77.6" x2="225.4" y2="77.6" gradientUnits="userSpaceOnUse">
			<stop offset="0" stop-color="#fde733"/>
			<stop offset=".1" stop-color="#fcdf36"/>
			<stop offset=".4" stop-color="#f9c73c"/>
			<stop offset=".7" stop-color="#f6a140"/>
			<stop offset="1" stop-color="#f37141"/>
		</linearGradient>
		<linearGradient id="g2" x1="3.3" y1="79.7" x2="225.4" y2="79.7" gradientUnits="userSpaceOnUse">
			<stop offset="0" stop-color="#fde733"/>
			<stop offset=".1" stop-color="#fcdf36"/>
			<stop offset=".4" stop-color="#f9c73c"/>
			<stop offset=".7" stop-color="#f6a140"/>
			<stop offset="1" stop-color="#f37141"/>
		</linearGradient>
	</defs>
	<style>
		.s0 { fill: none } 
		.s1 { fill: #3d7cbf } 
		.s2 { fill: url(#g1) } 
		.s3 { fill: url(#g2) } 
		.s4 { fill: #222358 } 
		.s5 { fill: #fbaf54 } 
	</style>
	<path id="backgroundrect" class="s0" d="m-103 4h452v91h-452z"/>
	<g id="Layer">
		<g id="svg_1">
			<g id="svg_2">
				<path id="svg_3" class="s1" d="m127.9 28.3c2.5-6.4 2.4-10.9 9.1-18.3 2-2.2 7.9-6 13.2-6 7.2 0 9.7 3.1 9.7 6.1 0 2.1-1.8 4.2-4.2 4.2-3.5 0-4.8-1.8-5.3-4.5-0.1-0.8-0.7-2.4-2.6-2.4-5.5 0-7.8 11.9-9.9 20.9h8.7c0.5 0 0.7 0.2 0.6 0.7l-0.4 2.1c-0.1 0.6-0.3 0.8-0.9 0.8h-8.7c-1.8 6.9-5.1 21.1-8.1 29.9-4.1 11.9-10.6 32.8-22 32.8-5 0-7.8-2.2-7.8-5.4 0-2.3 1.5-4.4 4.1-4.4 2.7 0 4.1 2 4.4 4.7 0 0.8 0.6 1.4 1.8 1.4 3.3 0 7.4-15.5 10.9-30.5l6.7-28.5h-7c-0.4 0-0.7-0.3-0.6-0.7l0.5-2.3c0.1-0.4 0.2-0.6 0.9-0.6 0 0 6.9 0 6.9 0z"/>
				<g id="svg_4">
					<path id="svg_5" class="s2" d="m221.5 89.5c-21.7-6.4-55.3-16.2-91.6-17.2 0.9-2.4 1.7-4.8 2.5-7 36.3 2.5 72 12.4 91.3 20.5 3.3 1.4 3.4 5.3-2.2 3.7z"/>
					<path id="svg_6" class="s3" d="m111 72.6c-26.7 1.7-71 10.2-94.6 20.7-13.8 6.1-18.3-8.4-10.6-12.6 6.9-3.7 21.3-7.2 37.8-10.1 16.7-2.9 46.3-6 68.1-5.9q1.7 0 3.4 0-1.1 4.4-2 7.8-1 0.1-2.1 0.1z"/>
				</g>
			</g>
			<path id="svg_7" class="s4" d="m-98.1 39.1c0-3.3 0-4.3-1.6-5.3l-1.2-0.8c-0.5-0.5-0.5-2 0-2.5 3.9-1.1 9.8-3.3 12.4-4.8q1 0 1.5 0.7c0 1.2-0.3 3.2-0.3 3.8 0 0.5 0.2 0.6 0.5 0.6 0.2 0 1-0.4 1.5-0.6 1.9-1.1 5.6-3.4 9.6-3.4 3 0 5.6 1 7.5 3.2 1 1.2 1.5 1.5 2 1.5 0.4 0 1.1-0.6 2.7-1.4 1.8-1 5-3.3 9.5-3.3 6.6 0 10.1 4.8 10.1 10.6v14.3c0 5.8 0.3 6.5 3.1 6.8l1.3 0.2c0.7 0.5 0.7 2.4-0.1 2.9-2.6-0.2-5.7-0.2-9.7-0.2-3.4 0-6.9 0-9.1 0.2-0.8-0.5-0.8-2.4-0.1-2.9l1.3-0.2c2.1-0.2 2.5-1 2.5-5.6v-14.1c0-3.2-1.8-5.9-5.6-5.9-2.4 0-4.1 1.1-4.7 2.1-0.3 0.5-0.6 1.4-0.6 2.5v15.4c0 4.6 0.3 5.4 2.3 5.6l1.3 0.2c0.7 0.5 0.7 2.4-0.1 2.9-2.6-0.2-5.2-0.2-9-0.2-3.3 0-6.7 0-8.8 0.2-0.8-0.5-0.8-2.4-0.1-2.9l1.3-0.2c1.9-0.2 2.3-1 2.3-5.6v-14.1c0-3.2-1.7-5.9-5.7-5.9-2.2 0-3.8 1.1-4.5 2-0.5 0.6-0.7 1.6-0.7 3.1v14.9c0 4.6 0.4 5.4 2.5 5.6l1.3 0.2c0.7 0.5 0.7 2.4-0.1 2.9-2.6-0.2-5.2-0.2-9.2-0.2-3.8 0-7.1 0-9.6 0.2-0.8-0.5-0.8-2.4-0.1-2.9l1.3-0.2c2.8-0.3 3.1-1 3.1-6.8z"/>
			<path id="svg_8" class="s4" d="m-40.1 30.7c-0.6-0.6-0.6-2.6 0.3-2.9 3 0.1 6.6 0.2 11 0.2 3.1 0 6.2-0.1 9.3-0.2 0.9 0.3 0.9 2.3 0.3 2.9l-1.7 0.3c-2.3 0.5-2.5 0.9-2.5 1.6 0 1 0.9 3.2 2.5 7.4 0.9 2.4 2.8 7.4 3.8 9.5 0.9-1.7 1.7-3.6 2.5-5.5l1.5-3.4c1.8-4 3.1-7.5 3.1-8.4 0-0.6-0.8-1-1.8-1.2l-1.7-0.3c-0.7-0.6-0.6-2.7 0.3-2.9 1.8 0.1 4.3 0.2 8.1 0.2q3.2 0 6.5-0.2c0.8 0.3 0.9 2.4 0.1 2.9l-1.6 0.1c-1.6 0.2-3 0.9-3.8 1.9-1 1.3-3.1 4.9-4.9 8.7l-4.4 9.1-12.7 26.3c-1.7 3.7-4.1 5.4-7.2 5.5-4.5 0.1-5.3-2.8-5.3-5 0-2.5 1.8-4.3 4.7-4.3h2.1c2 0 3.2-0.7 4-1.8 1-1.2 1.6-2.8 2.5-4.6 0.5-1 1.1-2.5 1.1-3.5 0-1.1-0.2-2.7-1.6-6.1l-8-20.1c-1.6-4.1-2.3-5.6-5-6z"/>
			<path id="svg_9" fill-rule="evenodd" class="s1" d="m17.3 14.3c0.7-2.6 0.8-5.5-1.7-5.5h-3.9c-0.4 0-0.5-0.5-0.4-0.9l0.5-1.9c0.1-0.4 0.2-0.5 1.1-0.5 0.8 0 15.6-0.2 19.5-0.2 9.6 0 13.4 0.6 17.3 3.9 3.7 3.1 5 5.6 5 11.3 0 9.4-7.1 18.6-24.4 18.6-2.9 0-6.3-0.5-8-0.9l-3.8 14.1c-0.7 3.1-0.3 6.1 2.6 6.1h3.4c0.5 0 0.7 0.3 0.6 0.8l-0.2 1.7c-0.1 0.5-0.3 0.7-1 0.7-1 0-4.6-0.2-12.4-0.2-7.7 0-10.7 0.2-11.9 0.2-0.5 0-0.7-0.2-0.7-0.8l0.2-1.6c0.1-0.5 0.3-0.8 0.9-0.8h1.4c3.6 0 5.1-3.1 6-6.5zm5.8 20.4c1.5 0.9 4.3 1.3 6 1.3 8.9 0 13.8-8.7 13.8-16.2 0-9.7-7.6-11.8-9.9-11.8-1.1 0-1.9 0-2.9 0.2z"/>
			<path id="svg_10" fill-rule="evenodd" class="s1" d="m76 53c0.3 0.3 0.3 0.5 0.2 0.9-1.5 3-7.8 8.3-16 8.3-5.6 0-9.7-3.4-9.7-9.3 0-6.2 2.6-15 10.1-21.3 4-3.5 9-5.8 13.9-5.8 4.6 0 6.5 2.5 6.5 5.7 0 4.7-2.8 8.1-7.6 10.9-4.6 2.5-9.1 3.4-12.3 3.6-0.3 0.8-0.6 2.9-0.6 5.3 0 2.9 1.6 5.4 4.5 5.4 4.1 0 7.1-2.3 9-4.3 0.2-0.3 0.4-0.5 0.7-0.3zm-6.6-13.4c1.3-1.3 2.6-4.1 2.6-6.8 0-1.4-0.3-2.9-2.2-2.9-3.2 0-6.8 7.6-8 13 1.4 0.1 5.1-1 7.6-3.3z"/>
			<path id="svg_11" class="s1" d="m85.6 61.4c-0.6 0-0.9-0.4-0.8-0.8l4-13.5c1.4-4.7 4-12.9 4-14.5 0-0.8-0.6-1.6-1.4-1.6-1.3 0-4.3 2.8-5.5 4.6-0.3 0.5-0.7 0.6-1 0.3l-0.8-0.5c-0.3-0.2-0.3-0.5 0-1 1.3-2.5 6.1-8.6 13.3-8.6 3.3 0 4.3 1.7 4.3 3.3 0 1.5-1.5 5.6-3.5 11l0.9 0.5c2.1-4.6 7.1-14.8 13.2-14.8 2.4 0 4.7 1.8 4.7 4.5 0 2.9-2.2 5.4-3.7 5.4-1.1 0-2-0.2-2.8-0.7-0.7-0.4-1.2-1-2.3-1-2.6 0-7.1 6.6-9 10.9-0.8 2-1.7 4.4-2.7 7.5l-2.7 8.4c-0.1 0.4-0.6 0.6-1.1 0.6 0 0-7.1 0-7.1 0z"/>
			<path id="svg_12" fill-rule="evenodd" class="s1" d="m169.5 53c0.4 0.3 0.4 0.5 0.2 0.9-1.5 3-7.8 8.3-15.9 8.3-5.7 0-9.8-3.4-9.8-9.3 0-6.2 2.7-15 10.1-21.3 4.1-3.5 9-5.8 13.9-5.8 4.6 0 6.5 2.5 6.5 5.7 0 4.7-2.7 8.1-7.5 10.9-4.6 2.5-9.1 3.4-12.3 3.6-0.3 0.8-0.7 2.9-0.7 5.3 0 2.9 1.7 5.4 4.5 5.4 4.1 0 7.1-2.3 9-4.3 0.2-0.3 0.5-0.5 0.7-0.3zm-6.6-13.4c1.3-1.3 2.7-4.1 2.7-6.8 0-1.4-0.4-2.9-2.3-2.9-3.1 0-6.7 7.6-8 13 1.4 0.1 5.2-1 7.6-3.3z"/>
			<path id="svg_13" class="s1" d="m196.9 54.1c0.2 0.2 0.4 0.4 0.1 0.9-1.2 1.8-6.6 7.2-13.8 7.2-3.7 0-8.3-2.9-8.3-9.3 0-10 8.7-27.1 20.8-27.1 4.9 0 6.5 3 6.5 4.5 0 2.6-2.1 4.9-3.7 4.9-1.7 0-2.9-0.6-3.4-2.2-0.4-1.4-1.2-2.7-2.6-2.7-1.5 0-2.5 2.1-4 5.6-2 5.1-3.4 8.1-3.4 15.5 0 2.5 0.4 5.2 3.2 5.2 2.5 0 5.7-1.8 6.8-3 0.3-0.3 0.5-0.5 0.8-0.3z"/>
			<path id="svg_14" class="s1" d="m222.5 28.3h8.4c0.4 0 0.6 0.2 0.4 0.7l-0.6 2.2c-0.1 0.5-0.5 0.7-1.1 0.7h-8.4l-6.8 18.4c-0.4 1.3-1.2 3.4-1.2 4.4 0 0.8 0.7 1.6 1.9 1.6 1.5 0 6.5-3.5 7-4.1 0.3-0.3 0.5-0.3 0.8 0l0.9 1c0.3 0.2 0.3 0.4 0.3 0.7-1.1 1.4-8.2 8.3-16.7 8.3-2.9 0-4.3-1.8-4.3-3 0-1.7 0.2-3.5 0.9-5.2l7.6-22.1h-6.5c-0.5 0-0.7-0.4-0.5-0.9l0.5-2.2c0.1-0.4 0.4-0.5 0.9-0.5h6.9l2.7-9c0.4-0.9 0.7-1.1 2.9-1.2 2.1-0.2 6.6-2.3 7.3-2.8 0.4-0.2 0.9-0.5 1.3-0.5 0.6 0 1 1 0.7 1.5z"/>
		</g>
		<path id="svg_15" class="s5" d=""/>
		<g id="svg_16">
			<path id="svg_17" class="s4" d="m285.8 9.1c0 1.4 0.3 7.8 1 12.5-0.3 1-2.5 1.3-3 0.6-2.2-7.5-7.4-11.5-15.2-11.5-8.9 0-18.5 7.6-18.5 23.6 0 16 9.3 24.7 18.9 24.7 9.8 0 14.3-7 16.4-12.5 0.7-0.7 2.6-0.4 3.1 0.5-0.6 6-1.9 10.8-3.1 12.7-4.3 1.2-10 3-16.3 3-7.9 0-15.9-1.9-21.6-6.2-5.8-4.4-10.3-11.1-10.3-21 0-9.9 4.2-16.8 9.8-21.4 5.7-4.7 13.9-7.1 22.3-7.1 8.2 0 14.1 1.9 16.5 2.1z"/>
			<path id="svg_18" class="s4" d="m329.2 41.4c-4.2 9.8-6.2 16.1-8.1 20.6-0.6 0.4-1.6 0.7-2.8 0.7-1 0-1.7-0.3-2.2-0.7-0.9-2.1-2.2-6.4-3.4-9.2l-13-32.7c-3.1-7.7-3.5-7.9-6-8.5l-3.3-0.9c-0.6-0.8-0.4-2.3 0.4-2.7 4.1 0.1 6.7 0.3 10.9 0.3 3.7 0 7.2-0.1 12.1-0.3 0.6 0.5 0.5 2 0.1 2.7l-2.5 0.5c-1.4 0.4-2 0.8-2 1.6 0 0.6 1.3 4 3.3 8.8l7 18.1 2.7 6.8c0.6-1.4 1.9-4.1 2.9-6.5l3-7.6c2.1-5.1 5.5-14.1 6.5-16.8 0.6-1.6 0.8-2.4 0.8-2.9 0-0.6-0.7-0.9-2.6-1.4l-2.6-0.6c-0.6-0.6-0.6-2.3 0.4-2.7 3.7 0.2 6.8 0.3 9.9 0.3 2.7 0 5.1-0.1 7.5-0.3 0.6 0.3 0.7 2.3 0.1 2.7l-2.1 0.5c-2.2 0.4-3.6 0.9-4.7 2.6-1.7 2.7-3.7 7.2-6.5 13.7z"/>
		</g>
	</g>
</svg>